<?xml version="1.0" encoding="UTF-8" standalone="no"?>
<svg width="83px" height="21px" viewBox="0 0 83 21" version="1.1" xmlns="http://www.w3.org/2000/svg" xmlns:xlink="http://www.w3.org/1999/xlink" xmlns:sketch="http://www.bohemiancoding.com/sketch/ns">
    <!-- Generator: Sketch 3.2.2 (9983) - http://www.bohemiancoding.com/sketch -->
    <title>logo-footer</title>
    <desc>Created with Sketch.</desc>
    <defs>
        <linearGradient x1="0%" y1="100%" x2="99.2307079%" y2="0.769292092%" id="linearGradient-1">
            <stop stop-color="#EDF2F9" offset="0%"></stop>
            <stop stop-color="#929DAC" offset="100%"></stop>
        </linearGradient>
    </defs>
    <g id="Elements" stroke="none" stroke-width="1" fill="none" fill-rule="evenodd" sketch:type="MSPage">
        <g id="Artboard-1" sketch:type="MSArtboardGroup" transform="translate(-689.000000, -275.000000)">
            <g id="footer" sketch:type="MSLayerGroup" transform="translate(689.000000, 275.000000)">
                <g id="logo-footer" sketch:type="MSShapeGroup">
                    <g id="Oval-7" fill="url(#linearGradient-1)">
                        <path d="M0.0493280602,0.4 L2.04932806,0.4 L2.04932806,20.2 L0.0493280602,20.2 L0.0493280602,0.4 Z M7.19087058,0.4 L10.1908706,0.4 L10.1908706,20.2 L7.19087058,20.2 L7.19087058,0.4 Z" id="Oval-1"></path>
                    </g>
                    <g id="KOEL-+-Landing-2" transform="translate(14.066667, 0.000000)" fill="#465366">
                        <path d="M1,0.364497041 L5.48570164,0.364497041 L5.48570164,8.47455621 L5.60776155,8.47455621 L11.5276671,0.364497041 L16.4710934,0.364497041 L10.4596429,8.26193294 L17.5696326,20.1688363 L12.6567213,20.1688363 L7.8048399,11.8157791 L5.48570164,14.8532544 L5.48570164,20.1688363 L1,20.1688363 L1,0.364497041 Z M26.9682455,20.5333333 C25.6255798,20.5333333 24.3999072,20.2954001 23.2911908,19.8195266 C22.1824744,19.3436531 21.2314338,18.660228 20.4380404,17.7692308 C19.6446471,16.8782335 19.0292678,15.7948782 18.5918843,14.5191321 C18.1545008,13.2433861 17.9358123,11.7955374 17.9358123,10.1755424 C17.9358123,8.55554746 18.1545008,7.11276109 18.5918843,5.84714004 C19.0292678,4.58151898 19.6446471,3.51841324 20.4380404,2.65779093 C21.2314338,1.79716861 22.1824744,1.13905553 23.2911908,0.683431953 C24.3999072,0.227808373 25.6255798,0 26.9682455,0 C28.3109112,0 29.5365839,0.227808373 30.6453003,0.683431953 C31.7540167,1.13905553 32.7050573,1.80223102 33.4984506,2.6729783 C34.291844,3.54372559 34.9072232,4.61189374 35.3446068,5.87751479 C35.7819903,7.14313585 36.0006788,8.57579739 36.0006788,10.1755424 C36.0006788,11.7955374 35.7819903,13.2433861 35.3446068,14.5191321 C34.9072232,15.7948782 34.291844,16.8782335 33.4984506,17.7692308 C32.7050573,18.660228 31.7540167,19.3436531 30.6453003,19.8195266 C29.5365839,20.2954001 28.3109112,20.5333333 26.9682455,20.5333333 L26.9682455,20.5333333 Z M26.9682455,16.6757396 C28.3312547,16.6757396 29.4094397,16.0935627 30.2028331,14.9291913 C30.9962265,13.76482 31.3929172,12.1802862 31.3929172,10.1755424 C31.3929172,8.19104859 30.9962265,6.64195166 30.2028331,5.52820513 C29.4094397,4.4144586 28.3312547,3.85759369 26.9682455,3.85759369 C25.6052364,3.85759369 24.5270513,4.4144586 23.733658,5.52820513 C22.9402646,6.64195166 22.5435739,8.19104859 22.5435739,10.1755424 C22.5435739,12.1802862 22.9402646,13.76482 23.733658,14.9291913 C24.5270513,16.0935627 25.6052364,16.6757396 26.9682455,16.6757396 L26.9682455,16.6757396 Z M39.754021,0.364497041 L52.2041316,0.364497041 L52.2041316,4.13096647 L44.2397226,4.13096647 L44.2397226,8.11005917 L51.0140475,8.11005917 L51.0140475,11.8461538 L44.2397226,11.8461538 L44.2397226,16.4023669 L52.5092814,16.4023669 L52.5092814,20.1688363 L39.754021,20.1688363 L39.754021,0.364497041 Z M56.4762284,0.364497041 L60.9619301,0.364497041 L60.9619301,16.4023669 L68.8347942,16.4023669 L68.8347942,20.1688363 L56.4762284,20.1688363 L56.4762284,0.364497041 Z" id="KOEL"></path>
                    </g>
                </g>
            </g>
        </g>
    </g>
</svg>