<?xml version="1.0" encoding="UTF-8" standalone="no"?>
<svg width="100px" height="25px" viewBox="0 0 100 25" version="1.1" xmlns="http://www.w3.org/2000/svg" xmlns:xlink="http://www.w3.org/1999/xlink" xmlns:sketch="http://www.bohemiancoding.com/sketch/ns">
    <!-- Generator: Sketch 3.2.2 (9983) - http://www.bohemiancoding.com/sketch -->
    <title>logo-default</title>
    <desc>Created with Sketch.</desc>
    <defs>
        <linearGradient x1="0%" y1="100%" x2="100%" y2="0%" id="linearGradient-1">
            <stop stop-color="#4990E2" offset="0%"></stop>
            <stop stop-color="#49C8E2" offset="100%"></stop>
        </linearGradient>
    </defs>
    <g id="Elements" stroke="none" stroke-width="1" fill="none" fill-rule="evenodd" sketch:type="MSPage">
        <g id="Artboard-1" sketch:type="MSArtboardGroup" transform="translate(-17.000000, -31.000000)">
            <g id="default" sketch:type="MSLayerGroup" transform="translate(17.000000, 31.000000)">
                <g id="logo-default" sketch:type="MSShapeGroup">
                    <g id="Oval-1" fill="url(#linearGradient-1)">
                        <path d="M0.0590852589,0.477777778 L2.45468965,0.477777778 L2.45468965,24.1277778 L0.0590852589,24.1277778 L0.0590852589,0.477777778 Z M8.61324058,0.477777778 L12.2066472,0.477777778 L12.2066472,24.1277778 L8.61324058,24.1277778 L8.61324058,0.477777778 Z"></path>
                    </g>
                    <g id="KOEL-+-Landing" transform="translate(18.046886, 0.000000)" fill="#FFFFFF">
                        <path d="M0,0.435371466 L5.37298328,0.435371466 L5.37298328,10.1223866 L5.51918691,10.1223866 L12.6100628,0.435371466 L18.5313097,0.435371466 L11.3307811,9.8684199 L19.8471423,24.0905545 L13.9624463,24.0905545 L8.15085219,14.1132917 L5.37298328,17.7413872 L5.37298328,24.0905545 L0,24.0905545 L0,0.435371466 Z M31.1048216,24.5259259 C29.4965736,24.5259259 28.0284602,24.2417279 26.7004373,23.6733235 C25.3724144,23.104919 24.2332559,22.2886057 23.2829275,21.224359 C22.3325992,20.1601123 21.5954966,18.8661045 21.0715977,17.3422967 C20.5476987,15.818489 20.2857532,14.0891141 20.2857532,12.1541201 C20.2857532,10.2191261 20.5476987,8.49579797 21.0715977,6.98408394 C21.5954966,5.4723699 22.3325992,4.20254915 23.2829275,3.17458361 C24.2332559,2.14661806 25.3724144,1.36053855 26.7004373,0.816321499 C28.0284602,0.272104445 29.4965736,0 31.1048216,0 C32.7130695,0 34.1811829,0.272104445 35.5092058,0.816321499 C36.8372287,1.36053855 37.9763873,2.15266483 38.9267156,3.19272409 C39.8770439,4.23278334 40.6141465,5.50865085 41.1380455,7.02036489 C41.6619444,8.53207893 41.92389,10.2433136 41.92389,12.1541201 C41.92389,14.0891141 41.6619444,15.818489 41.1380455,17.3422967 C40.6141465,18.8661045 39.8770439,20.1601123 38.9267156,21.224359 C37.9763873,22.2886057 36.8372287,23.104919 35.5092058,23.6733235 C34.1811829,24.2417279 32.7130695,24.5259259 31.1048216,24.5259259 L31.1048216,24.5259259 Z M31.1048216,19.9182446 C32.7374369,19.9182446 34.0288894,19.2228665 34.9792177,17.8320896 C35.929546,16.4413127 36.404703,14.5486751 36.404703,12.1541201 C36.404703,9.78375248 35.929546,7.93344226 34.9792177,6.6031339 C34.0288894,5.27282555 32.7374369,4.60768135 31.1048216,4.60768135 C29.4722062,4.60768135 28.1807538,5.27282555 27.2304255,6.6031339 C26.2800971,7.93344226 25.8049401,9.78375248 25.8049401,12.1541201 C25.8049401,14.5486751 26.2800971,16.4413127 27.2304255,17.8320896 C28.1807538,19.2228665 29.4722062,19.9182446 31.1048216,19.9182446 L31.1048216,19.9182446 Z M46.4196515,0.435371466 L61.3324214,0.435371466 L61.3324214,4.93420995 L51.7926348,4.93420995 L51.7926348,9.68701512 L59.906936,9.68701512 L59.906936,14.1495726 L51.7926348,14.1495726 L51.7926348,19.591716 L61.6979305,19.591716 L61.6979305,24.0905545 L46.4196515,24.0905545 L46.4196515,0.435371466 Z M66.4495483,0.435371466 L71.8225316,0.435371466 L71.8225316,19.591716 L81.2526655,19.591716 L81.2526655,24.0905545 L66.4495483,24.0905545 L66.4495483,0.435371466 Z" id="KOEL"></path>
                    </g>
                </g>
            </g>
        </g>
    </g>
</svg>