<?xml version="1.0" encoding="UTF-8" standalone="no"?>
<svg width="22px" height="32px" viewBox="0 0 22 32" version="1.1" xmlns="http://www.w3.org/2000/svg" xmlns:xlink="http://www.w3.org/1999/xlink" xmlns:sketch="http://www.bohemiancoding.com/sketch/ns">
    <!-- Generator: Sketch 3.2.2 (9983) - http://www.bohemiancoding.com/sketch -->
    <title>bulb</title>
    <desc>Created with Sketch.</desc>
    <defs>
        <linearGradient x1="0%" y1="0%" x2="100%" y2="100%" id="linearGradient-1">
            <stop stop-color="#C9FF88" offset="0%"></stop>
            <stop stop-color="#49C8E2" offset="100%"></stop>
        </linearGradient>
    </defs>
    <g id="Sketchboard" stroke="none" stroke-width="1" fill="none" fill-rule="evenodd" sketch:type="MSPage">
        <g id="Desktop-HD" sketch:type="MSArtboardGroup" transform="translate(-335.000000, -1129.000000)" fill="url(#linearGradient-1)">
            <g id="Features" sketch:type="MSLayerGroup" transform="translate(176.000000, 858.000000)">
                <g id="Oval-2-+-EASY-TO-+-Shape-+-Oval-2-+-EASY-TO-+-Shape-3-+-Oval-2-+-EASY-TO-+-Shape-2" transform="translate(0.000000, 214.000000)" sketch:type="MSShapeGroup">
                    <g id="Rectangle-7-+-Oval-2-+-EASY-TO-+-Shape-2">
                        <g id="Oval-2-+-EASY-TO-+-Shape-2" transform="translate(110.000000, 33.000000)">
                            <g id="EASY-TO-+-Shape" transform="translate(32.000000, 24.000000)">
                                <path d="M28,0 C21.924,0 17,4.924 17,11 C17,15.031 20.688,19.303 22.031,23.055 C24.034,28.65 23.812,32 28,32 C32.25,32 31.965,28.666 33.969,23.078 C35.316,19.318 39,15 39,11 C39,4.924 34.074,0 28,0 L28,0 Z M30.592,27.176 L25.634,27.795 C25.457,27.283 25.267,26.684 25.036,25.902 C25.033,25.892 25.029,25.881 25.027,25.871 L31.215,25.098 C31.127,25.393 31.033,25.703 30.951,25.981 C30.82,26.43 30.703,26.82 30.592,27.176 L30.592,27.176 Z M24.736,24.908 C24.554,24.306 24.349,23.672 24.121,23 L31.887,23 C31.764,23.359 31.641,23.719 31.535,24.059 L24.736,24.908 L24.736,24.908 Z M28,30 C26.987,30 26.521,29.883 26.003,28.75 L30.241,28.219 C29.627,29.873 29.18,30 28,30 L28,30 Z M32.672,21 L23.339,21 C22.841,19.92 22.243,18.84 21.653,17.783 C20.348,15.448 19,13.033 19,11 C19,6.037 23.037,2 28,2 C32.963,2 37,6.037 37,11 C37,13.018 35.65,15.446 34.344,17.795 C33.76,18.848 33.166,19.926 32.672,21 Z M28,5 C24.691,5 22,7.691 22,11 C22,11.276 22.224,11.5 22.5,11.5 C22.776,11.5 23,11.276 23,11 C23,8.243 25.243,6 28,6 C28.276,6 28.5,5.776 28.5,5.5 C28.5,5.224 28.275,5 28,5 Z" id="bulb"></path>
                            </g>
                        </g>
                    </g>
                </g>
            </g>
        </g>
    </g>
</svg>