<?xml version="1.0" encoding="UTF-8" standalone="no"?>
<svg width="43px" height="32px" viewBox="0 0 43 32" version="1.1" xmlns="http://www.w3.org/2000/svg" xmlns:xlink="http://www.w3.org/1999/xlink" xmlns:sketch="http://www.bohemiancoding.com/sketch/ns">
    <!-- Generator: Sketch 3.2.2 (9983) - http://www.bohemiancoding.com/sketch -->
    <title>diamond</title>
    <desc>Created with Sketch.</desc>
    <defs>
        <linearGradient x1="0%" y1="0%" x2="101.999998%" y2="100.999999%" id="linearGradient-1">
            <stop stop-color="#3023AE" offset="0%"></stop>
            <stop stop-color="#C96DD8" offset="100%"></stop>
        </linearGradient>
    </defs>
    <g id="Sketchboard" stroke="none" stroke-width="1" fill="none" fill-rule="evenodd" sketch:type="MSPage">
        <g id="Desktop-HD" sketch:type="MSArtboardGroup" transform="translate(-1072.000000, -1129.000000)" fill="url(#linearGradient-1)">
            <g id="Features" sketch:type="MSLayerGroup" transform="translate(176.000000, 858.000000)">
                <g id="Oval-2-+-EASY-TO-+-Shape-+-Oval-2-+-EASY-TO-+-Shape-3-+-Oval-2-+-EASY-TO-+-Shape-2" transform="translate(0.000000, 214.000000)" sketch:type="MSShapeGroup">
                    <g id="Rectangle-9-+-Oval-2-+-EASY-TO-+-Shape-3" transform="translate(747.000000, 0.000000)">
                        <g id="Oval-2-+-EASY-TO-+-Shape-3" transform="translate(110.000000, 33.000000)">
                            <g id="EASY-TO-+-Shape" transform="translate(31.000000, 24.000000)">
                                <path d="M50.2124708,7.55914965 L43.386239,0.781659025 C42.882334,0.281450604 42.1970234,3.55271368e-15 41.4861815,3.55271368e-15 L17.5150889,3.55271368e-15 C16.8029033,3.55271368e-15 16.1189363,0.281450604 15.6150314,0.781659025 L8.78879952,7.55914965 C8.26070717,8.08203418 7.99733287,8.77165486 8.00002036,9.46260942 C8.0040516,10.0895373 8.229801,10.7151313 8.67995606,11.2180075 L27.4910624,31.1036265 C28.001686,31.6745311 28.7326841,32 29.4999633,32 C30.2672425,32 30.9982406,31.6745311 31.5075205,31.1036265 L50.3199706,11.2180075 C50.7795318,10.7044602 51.0052812,10.0615256 50.9999063,9.41992497 C50.9945313,8.74497707 50.7298132,8.07269696 50.2124708,7.55914965 L50.2124708,7.55914965 Z M32.4817366,9.33722384 L26.5168462,9.33722384 L29.4999633,6.87086286 L32.4817366,9.33722384 L32.4817366,9.33722384 Z M30.550773,6.00250104 L34.2218883,2.96390163 L36.9335686,5.65568987 L33.5312026,8.46886203 L30.550773,6.00250104 L30.550773,6.00250104 Z M25.468724,8.46886203 L22.066358,5.65568987 L24.7780383,2.96390163 L28.4504973,6.00250104 L25.468724,8.46886203 L25.468724,8.46886203 Z M32.8458919,10.671113 L29.4999633,27.2820342 L26.1540347,10.671113 L32.8458919,10.671113 L32.8458919,10.671113 Z M34.2165133,10.671113 L40.8089333,10.671113 L30.9203033,27.0365986 L34.2165133,10.671113 L34.2165133,10.671113 Z M34.5779811,9.33722384 L37.8876285,6.60141726 L40.6436525,9.33722384 L34.5779811,9.33722384 L34.5779811,9.33722384 Z M35.8249778,2.66777824 L40.5442152,2.66777824 L37.9695971,4.79799917 L35.8249778,2.66777824 L35.8249778,2.66777824 Z M29.4999633,5.13547311 L26.5168462,2.66777824 L32.4803929,2.66777824 L29.4999633,5.13547311 L29.4999633,5.13547311 Z M21.0289858,4.79799917 L18.4543676,2.66777824 L23.1749488,2.66777824 L21.0289858,4.79799917 L21.0289858,4.79799917 Z M21.1122981,6.60141726 L24.4206018,9.33722384 L18.3562741,9.33722384 L21.1122981,6.60141726 L21.1122981,6.60141726 Z M24.7834133,10.671113 L28.0796233,27.0365986 L18.1896496,10.671113 L24.7834133,10.671113 L24.7834133,10.671113 Z M25.0709751,24.6476032 L11.8485101,10.671113 L16.624185,10.671113 L25.0709751,24.6476032 L25.0709751,24.6476032 Z M42.3757416,10.671113 L47.1527602,10.671113 L33.9276078,24.6502709 L42.3757416,10.671113 L42.3757416,10.671113 Z M42.5437099,9.33722384 L38.9250008,5.74506044 L42.0115864,3.19066278 L48.2022262,9.33722384 L42.5437099,9.33722384 L42.5437099,9.33722384 Z M16.984309,3.187995 L20.0762696,5.74506044 L16.4562167,9.33722384 L10.6955757,9.33722384 L16.984309,3.187995 L16.984309,3.187995 Z" id="diamond"></path>
                            </g>
                        </g>
                    </g>
                </g>
            </g>
        </g>
    </g>
</svg>