<?xml version="1.0" encoding="UTF-8" standalone="no"?>
<svg width="32px" height="32px" viewBox="0 0 32 32" version="1.1" xmlns="http://www.w3.org/2000/svg" xmlns:xlink="http://www.w3.org/1999/xlink" xmlns:sketch="http://www.bohemiancoding.com/sketch/ns">
    <!-- Generator: Sketch 3.2.2 (9983) - http://www.bohemiancoding.com/sketch -->
    <title>selectors</title>
    <desc>Created with Sketch.</desc>
    <defs>
        <linearGradient x1="0%" y1="100%" x2="100%" y2="0%" id="linearGradient-1">
            <stop stop-color="#4990E2" offset="0%"></stop>
            <stop stop-color="#49C8E2" offset="100%"></stop>
        </linearGradient>
    </defs>
    <g id="Sketchboard" stroke="none" stroke-width="1" fill="none" fill-rule="evenodd" sketch:type="MSPage">
        <g id="Desktop-HD" sketch:type="MSArtboardGroup" transform="translate(-704.000000, -1128.000000)" fill="url(#linearGradient-1)">
            <g id="Features" sketch:type="MSLayerGroup" transform="translate(176.000000, 858.000000)">
                <g id="Oval-2-+-EASY-TO-+-Shape-+-Oval-2-+-EASY-TO-+-Shape-3-+-Oval-2-+-EASY-TO-+-Shape-2" transform="translate(0.000000, 214.000000)" sketch:type="MSShapeGroup">
                    <g id="Rectangle-8-+-Oval-2-+-EASY-TO-+-Shape" transform="translate(374.000000, 0.000000)">
                        <g id="Oval-2-+-EASY-TO-+-Shape" transform="translate(110.000000, 33.000000)">
                            <g id="EASY-TO-+-Shape" transform="translate(29.000000, 23.000000)">
                                <path d="M23,6.021 L23,3 C23,1.346 21.654,0 20,0 C18.346,0 17,1.346 17,3 L17,6.021 C15.792,6.936 15,8.369 15,10 C15,11.631 15.792,13.064 17,13.977 L17,29 C17,30.654 18.346,32 20,32 C21.654,32 23,30.654 23,29 L23,13.977 C24.208,13.065 25,11.631 25,10 C25,8.369 24.208,6.936 23,6.021 L23,6.021 Z M19,3 C19,2.447 19.447,2 20,2 C20.553,2 21,2.447 21,3 L21,5.1 C20.677,5.035 20.343,5 20,5 C19.657,5 19.323,5.035 19,5.1 L19,3 L19,3 Z M21,29 C21,29.553 20.553,30 20,30 C19.447,30 19,29.553 19,29 L19,14.898 C19.323,14.965 19.657,15 20,15 C20.343,15 20.677,14.965 21,14.898 L21,29 L21,29 Z M22.865,10.84 C22.849,10.893 22.835,10.945 22.816,10.998 C22.721,11.262 22.599,11.512 22.438,11.734 C22.434,11.74 22.428,11.744 22.424,11.75 C22.25,11.988 22.043,12.199 21.808,12.377 C21.804,12.381 21.801,12.383 21.798,12.385 C21.557,12.567 21.288,12.713 20.999,12.815 C20.686,12.928 20.353,13 20,13 C19.647,13 19.314,12.928 19,12.814 C18.711,12.712 18.442,12.566 18.201,12.384 C18.198,12.382 18.195,12.38 18.191,12.376 C17.956,12.198 17.749,11.987 17.575,11.749 C17.571,11.743 17.565,11.739 17.561,11.733 C17.4,11.51 17.278,11.26 17.183,10.997 C17.164,10.944 17.15,10.892 17.134,10.839 C17.055,10.572 17,10.293 17,10 C17,9.705 17.055,9.426 17.135,9.158 C17.151,9.105 17.165,9.053 17.184,9.002 C17.278,8.738 17.4,8.488 17.562,8.264 C17.566,8.258 17.572,8.254 17.576,8.248 C17.75,8.012 17.957,7.799 18.192,7.621 C18.196,7.619 18.199,7.615 18.202,7.613 C18.442,7.434 18.711,7.287 19,7.184 C19.314,7.072 19.647,7 20,7 C20.353,7 20.686,7.072 21,7.184 C21.289,7.288 21.558,7.434 21.799,7.614 C21.802,7.616 21.805,7.62 21.809,7.622 C22.044,7.8 22.251,8.013 22.425,8.249 C22.429,8.255 22.435,8.259 22.439,8.265 C22.6,8.488 22.722,8.738 22.816,9.002 C22.835,9.053 22.85,9.105 22.865,9.158 C22.945,9.426 23,9.705 23,10 C23,10.293 22.945,10.572 22.865,10.84 Z M45,6.021 L45,3 C45,1.346 43.654,0 42,0 C40.346,0 39,1.346 39,3 L39,6.021 C37.791,6.936 37,8.369 37,10 C37,11.631 37.791,13.064 39,13.977 L39,29 C39,30.654 40.346,32 42,32 C43.654,32 45,30.654 45,29 L45,13.977 C46.207,13.065 47,11.631 47,10 C47,8.369 46.207,6.936 45,6.021 Z M41,3 C41,2.447 41.447,2 42,2 C42.553,2 43,2.447 43,3 L43,5.1 C42.676,5.035 42.342,5 42,5 C41.656,5 41.322,5.035 41,5.1 L41,3 L41,3 Z M43,29 C43,29.553 42.553,30 42,30 C41.447,30 41,29.553 41,29 L41,14.898 C41.322,14.965 41.656,15 42,15 C42.342,15 42.676,14.965 43,14.898 L43,29 L43,29 Z M44.865,10.84 C44.849,10.893 44.834,10.945 44.816,10.998 C44.72,11.262 44.599,11.512 44.437,11.734 C44.433,11.74 44.427,11.744 44.423,11.75 C44.249,11.988 44.042,12.199 43.808,12.377 C43.804,12.381 43.8,12.383 43.798,12.385 C43.556,12.567 43.288,12.713 42.999,12.815 C42.686,12.928 42.352,13 42,13 C41.646,13 41.314,12.928 41,12.814 C40.711,12.712 40.441,12.566 40.201,12.384 C40.197,12.382 40.195,12.38 40.191,12.376 C39.955,12.198 39.748,11.987 39.574,11.749 C39.57,11.743 39.564,11.739 39.56,11.733 C39.4,11.51 39.277,11.26 39.183,10.997 C39.163,10.944 39.15,10.892 39.134,10.839 C39.055,10.572 39,10.293 39,10 C39,9.705 39.055,9.426 39.135,9.158 C39.151,9.105 39.164,9.053 39.184,9.002 C39.278,8.738 39.401,8.488 39.561,8.264 C39.565,8.258 39.571,8.254 39.575,8.248 C39.749,8.012 39.956,7.799 40.192,7.621 C40.196,7.619 40.198,7.615 40.202,7.613 C40.442,7.433 40.712,7.287 41.001,7.183 C41.314,7.072 41.646,7 42,7 C42.352,7 42.686,7.072 43,7.184 C43.289,7.288 43.557,7.434 43.799,7.614 C43.801,7.616 43.805,7.62 43.809,7.622 C44.043,7.8 44.25,8.013 44.424,8.249 C44.428,8.255 44.434,8.259 44.438,8.265 C44.6,8.49 44.721,8.74 44.817,9.003 C44.835,9.054 44.85,9.107 44.866,9.159 C44.945,9.426 45,9.705 45,10 C45,10.293 44.945,10.572 44.865,10.84 Z M34,18.021 L34,3 C34,1.346 32.654,0 31,0 C29.346,0 28,1.346 28,3 L28,18.021 C26.792,18.935 26,20.369 26,22 C26,23.631 26.792,25.064 28,25.977 L28,29 C28,30.654 29.346,32 31,32 C32.654,32 34,30.654 34,29 L34,25.977 C35.207,25.065 36,23.631 36,22 C36,20.369 35.207,18.936 34,18.021 Z M30,3 C30,2.447 30.447,2 31,2 C31.553,2 32,2.447 32,3 L32,17.1 C31.676,17.036 31.342,17 31,17 C30.657,17 30.323,17.035 30,17.1 L30,3 L30,3 Z M32,29 C32,29.553 31.553,30 31,30 C30.447,30 30,29.553 30,29 L30,26.898 C30.323,26.965 30.657,27 31,27 C31.342,27 31.676,26.965 32,26.898 L32,29 L32,29 Z M33.865,22.84 C33.849,22.893 33.834,22.945 33.816,22.998 C33.72,23.262 33.599,23.512 33.437,23.734 C33.433,23.74 33.427,23.744 33.423,23.75 C33.249,23.988 33.042,24.199 32.808,24.377 C32.804,24.381 32.8,24.383 32.798,24.385 C32.556,24.567 32.288,24.713 31.999,24.815 C31.686,24.928 31.352,25 31,25 C30.647,25 30.314,24.928 30,24.814 C29.711,24.712 29.442,24.566 29.201,24.384 C29.198,24.382 29.195,24.38 29.191,24.376 C28.956,24.198 28.749,23.987 28.575,23.749 C28.571,23.743 28.565,23.739 28.561,23.733 C28.4,23.51 28.278,23.26 28.183,22.997 C28.164,22.944 28.15,22.892 28.134,22.839 C28.055,22.572 28,22.293 28,22 C28,21.705 28.055,21.426 28.135,21.158 C28.151,21.105 28.165,21.053 28.184,21.002 C28.279,20.738 28.401,20.488 28.562,20.264 C28.566,20.258 28.572,20.254 28.576,20.248 C28.75,20.012 28.957,19.799 29.192,19.621 C29.196,19.619 29.199,19.615 29.202,19.613 C29.443,19.433 29.712,19.287 30.001,19.183 C30.314,19.072 30.647,19 31,19 C31.352,19 31.686,19.072 32,19.184 C32.289,19.288 32.557,19.434 32.799,19.614 C32.801,19.616 32.805,19.62 32.809,19.622 C33.043,19.8 33.25,20.013 33.424,20.249 C33.428,20.255 33.434,20.259 33.438,20.265 C33.6,20.49 33.721,20.74 33.817,21.003 C33.835,21.054 33.85,21.107 33.866,21.159 C33.945,21.426 34,21.705 34,22 C34,22.293 33.945,22.572 33.865,22.84 L33.865,22.84 Z" id="selectors"></path>
                            </g>
                        </g>
                    </g>
                </g>
            </g>
        </g>
    </g>
</svg>