<svg version="1.0" xmlns="http://www.w3.org/2000/svg"
 width="157.000000pt" height="150.000000pt" viewBox="0 0 157.000000 150.000000"
 preserveAspectRatio="xMidYMid meet">
	<g transform="translate(0.000000,150.000000) scale(0.100000,-0.100000)"
	fill="" stroke="none">
	<path d="M576 1484 c-352 -79 -598 -421 -573 -797 10 -148 51 -276 120 -380
	l42 -62 54 -3 c30 -2 59 2 64 7 15 15 71 14 111 -3 19 -8 70 -39 114 -69 44
	-30 104 -64 133 -75 197 -72 398 2 441 164 10 35 17 44 33 44 19 0 24 -10 38
	-81 26 -131 72 -182 192 -214 64 -16 151 -20 159 -7 13 21 57 425 48 434 -5 5
	-108 34 -228 65 -121 30 -223 58 -227 62 -11 11 17 64 50 95 14 14 65 39 112
	57 47 17 100 42 118 56 69 51 65 150 -12 299 -101 196 -252 330 -440 390 -103
	33 -249 41 -349 18z m123 -900 c26 -21 31 -33 31 -69 0 -36 -5 -48 -31 -69
	-37 -32 -77 -33 -113 -5 -38 30 -49 64 -35 106 20 62 96 81 148 37z m655 -159
	c64 -14 118 -25 121 -25 8 0 6 -38 -3 -44 -7 -4 -227 20 -248 28 -6 2 -14 18
	-16 35 -6 39 -5 39 146 6z m1 -138 l100 -13 -3 -64 c-2 -35 -7 -80 -11 -99 -7
	-34 -9 -36 -42 -33 -46 4 -119 41 -141 72 -18 25 -40 127 -31 143 5 9 5 9 128
	-6z"/>
	</g>
</svg>
