<svg version="1.0" xmlns="http://www.w3.org/2000/svg"
 width="157.000000pt" height="150.000000pt" viewBox="0 0 157.000000 150.000000"
 preserveAspectRatio="xMidYMid meet">
	<g transform="translate(0.000000,150.000000) scale(0.100000,-0.100000)"
	fill="" stroke="none">
	<path d="M731 1489 c-228 -44 -411 -188 -526 -413 -77 -149 -81 -248 -12 -299
	18 -14 71 -39 118 -56 47 -18 98 -43 112 -57 33 -31 61 -84 50 -95 -4 -4 -106
	-32 -227 -62 -120 -31 -223 -60 -228 -65 -9 -9 35 -413 48 -434 8 -13 95 -9
	159 7 120 32 166 83 192 214 14 71 19 81 38 81 16 0 23 -9 33 -44 43 -162 244
	-236 441 -164 29 11 89 45 133 75 44 30 95 61 114 69 40 17 96 18 111 3 5 -5
	34 -9 64 -7 l54 3 42 62 c129 193 158 471 73 706 -122 332 -465 540 -789 476z
	m249 -894 c35 -18 55 -71 41 -107 -13 -35 -58 -68 -92 -68 -15 0 -41 12 -58
	26 -26 21 -31 33 -31 69 0 36 5 48 31 69 35 29 67 33 109 11z m-618 -176 c-2
	-17 -10 -33 -16 -35 -21 -8 -241 -32 -248 -28 -5 3 -8 14 -8 24 0 15 12 21 58
	30 31 7 82 18 112 25 30 7 67 14 81 14 23 1 25 -2 21 -30z m-20 -169 c-5 -60
	-30 -110 -70 -137 -35 -23 -123 -46 -134 -35 -10 10 -31 182 -23 190 8 8 168
	30 205 28 23 -1 25 -4 22 -46z"/>
	</g>
</svg>
